<mxfile host="app.diagrams.net" modified="2021-05-31T15:20:08.338Z" agent="5.0 (Windows NT 10.0; Win64; x64) AppleWebKit/537.36 (KHTML, like Gecko) Chrome/91.0.4472.77 Safari/537.36" etag="YaBpjtpMfH9gm0M8WZHw" version="14.7.2" type="github">
  <diagram id="kgpKYQtTHZ0yAKxKKP6v" name="Page-1">
    <mxGraphModel dx="2435" dy="1755" grid="0" gridSize="10" guides="1" tooltips="1" connect="1" arrows="1" fold="1" page="1" pageScale="1" pageWidth="850" pageHeight="1100" background="none" math="0" shadow="1">
      <root>
        <mxCell id="0" />
        <mxCell id="1" parent="0" />
        <mxCell id="_PE3ErCwy1nDp8iy9RpN-19" style="edgeStyle=orthogonalEdgeStyle;rounded=0;orthogonalLoop=1;jettySize=auto;html=1;entryX=0;entryY=0.5;entryDx=0;entryDy=0;" edge="1" parent="1" source="iwQhLdn17aUrFQSZAoBG-3" target="iwQhLdn17aUrFQSZAoBG-30">
          <mxGeometry relative="1" as="geometry">
            <Array as="points">
              <mxPoint x="278" y="213" />
              <mxPoint x="278" y="-65" />
            </Array>
          </mxGeometry>
        </mxCell>
        <mxCell id="iwQhLdn17aUrFQSZAoBG-3" value="«Annotation»&lt;br&gt;&lt;b&gt;XCOM&lt;/b&gt;" style="html=1;dropTarget=0;" parent="1" vertex="1">
          <mxGeometry x="63" y="168" width="180" height="90" as="geometry" />
        </mxCell>
        <mxCell id="iwQhLdn17aUrFQSZAoBG-4" value="2" style="shape=module;jettyWidth=8;jettyHeight=4;" parent="iwQhLdn17aUrFQSZAoBG-3" vertex="1">
          <mxGeometry x="1" width="20" height="20" relative="1" as="geometry">
            <mxPoint x="-27" y="7" as="offset" />
          </mxGeometry>
        </mxCell>
        <mxCell id="iwQhLdn17aUrFQSZAoBG-53" style="edgeStyle=orthogonalEdgeStyle;rounded=0;orthogonalLoop=1;jettySize=auto;html=1;entryX=0.5;entryY=1;entryDx=0;entryDy=0;" parent="1" source="iwQhLdn17aUrFQSZAoBG-16" target="iwQhLdn17aUrFQSZAoBG-19" edge="1">
          <mxGeometry relative="1" as="geometry" />
        </mxCell>
        <mxCell id="iwQhLdn17aUrFQSZAoBG-58" style="edgeStyle=orthogonalEdgeStyle;rounded=0;orthogonalLoop=1;jettySize=auto;html=1;exitX=0.5;exitY=1;exitDx=0;exitDy=0;" parent="1" source="iwQhLdn17aUrFQSZAoBG-16" edge="1" target="_PE3ErCwy1nDp8iy9RpN-22">
          <mxGeometry relative="1" as="geometry">
            <mxPoint x="352" y="480" as="targetPoint" />
          </mxGeometry>
        </mxCell>
        <mxCell id="iwQhLdn17aUrFQSZAoBG-16" value="«Genera»&lt;br&gt;&lt;b&gt;PDF&lt;br&gt;&lt;br&gt;&lt;/b&gt;" style="html=1;dropTarget=0;" parent="1" vertex="1">
          <mxGeometry x="320" y="290" width="180" height="80" as="geometry" />
        </mxCell>
        <mxCell id="iwQhLdn17aUrFQSZAoBG-17" value="7" style="shape=module;jettyWidth=8;jettyHeight=4;" parent="iwQhLdn17aUrFQSZAoBG-16" vertex="1">
          <mxGeometry x="1" width="20" height="20" relative="1" as="geometry">
            <mxPoint x="-27" y="7" as="offset" />
          </mxGeometry>
        </mxCell>
        <mxCell id="iwQhLdn17aUrFQSZAoBG-42" style="edgeStyle=orthogonalEdgeStyle;rounded=0;orthogonalLoop=1;jettySize=auto;html=1;entryX=0;entryY=0.5;entryDx=0;entryDy=0;" parent="1" source="iwQhLdn17aUrFQSZAoBG-19" target="iwQhLdn17aUrFQSZAoBG-38" edge="1">
          <mxGeometry relative="1" as="geometry" />
        </mxCell>
        <mxCell id="_PE3ErCwy1nDp8iy9RpN-29" style="edgeStyle=orthogonalEdgeStyle;rounded=1;orthogonalLoop=1;jettySize=auto;html=1;entryX=0.25;entryY=1;entryDx=0;entryDy=0;" edge="1" parent="1" source="iwQhLdn17aUrFQSZAoBG-19" target="iwQhLdn17aUrFQSZAoBG-30">
          <mxGeometry relative="1" as="geometry" />
        </mxCell>
        <mxCell id="iwQhLdn17aUrFQSZAoBG-19" value="«facturas PDF »&lt;br&gt;&lt;b&gt;BUS&lt;/b&gt;" style="html=1;dropTarget=0;" parent="1" vertex="1">
          <mxGeometry x="335" y="158" width="180" height="90" as="geometry" />
        </mxCell>
        <mxCell id="iwQhLdn17aUrFQSZAoBG-20" value="4" style="shape=module;jettyWidth=8;jettyHeight=4;" parent="iwQhLdn17aUrFQSZAoBG-19" vertex="1">
          <mxGeometry x="1" width="20" height="20" relative="1" as="geometry">
            <mxPoint x="-27" y="7" as="offset" />
          </mxGeometry>
        </mxCell>
        <mxCell id="iwQhLdn17aUrFQSZAoBG-21" value="«ICSB»&lt;br&gt;&lt;b&gt;ATH&lt;/b&gt;" style="html=1;dropTarget=0;" parent="1" vertex="1">
          <mxGeometry x="-140" y="-118" width="280" height="90" as="geometry" />
        </mxCell>
        <mxCell id="iwQhLdn17aUrFQSZAoBG-22" value="1" style="shape=module;jettyWidth=8;jettyHeight=4;" parent="iwQhLdn17aUrFQSZAoBG-21" vertex="1">
          <mxGeometry x="1" width="20" height="20" relative="1" as="geometry">
            <mxPoint x="-27" y="7" as="offset" />
          </mxGeometry>
        </mxCell>
        <mxCell id="_PE3ErCwy1nDp8iy9RpN-26" style="edgeStyle=orthogonalEdgeStyle;rounded=0;orthogonalLoop=1;jettySize=auto;html=1;entryX=0.5;entryY=0;entryDx=0;entryDy=0;" edge="1" parent="1" source="iwQhLdn17aUrFQSZAoBG-25" target="iwQhLdn17aUrFQSZAoBG-30">
          <mxGeometry relative="1" as="geometry">
            <Array as="points">
              <mxPoint x="-202" y="-130" />
              <mxPoint x="568" y="-130" />
            </Array>
          </mxGeometry>
        </mxCell>
        <mxCell id="iwQhLdn17aUrFQSZAoBG-25" value="«Annotation»&lt;br&gt;&lt;b&gt;GoAnyWhere&lt;/b&gt;" style="html=1;dropTarget=0;" parent="1" vertex="1">
          <mxGeometry x="-263" y="158" width="223" height="108" as="geometry" />
        </mxCell>
        <mxCell id="iwQhLdn17aUrFQSZAoBG-26" value="8" style="shape=module;jettyWidth=8;jettyHeight=4;" parent="iwQhLdn17aUrFQSZAoBG-25" vertex="1">
          <mxGeometry x="1" width="20" height="20" relative="1" as="geometry">
            <mxPoint x="-27" y="7" as="offset" />
          </mxGeometry>
        </mxCell>
        <mxCell id="iwQhLdn17aUrFQSZAoBG-30" value="«»&lt;br&gt;&lt;b&gt;SAM&lt;/b&gt;" style="html=1;dropTarget=0;" parent="1" vertex="1">
          <mxGeometry x="478" y="-110" width="180" height="90" as="geometry" />
        </mxCell>
        <mxCell id="iwQhLdn17aUrFQSZAoBG-31" value="3" style="shape=module;jettyWidth=8;jettyHeight=4;" parent="iwQhLdn17aUrFQSZAoBG-30" vertex="1">
          <mxGeometry x="1" width="20" height="20" relative="1" as="geometry">
            <mxPoint x="-27" y="7" as="offset" />
          </mxGeometry>
        </mxCell>
        <mxCell id="iwQhLdn17aUrFQSZAoBG-57" style="edgeStyle=orthogonalEdgeStyle;rounded=0;orthogonalLoop=1;jettySize=auto;html=1;entryX=1;entryY=0.75;entryDx=0;entryDy=0;" parent="1" source="iwQhLdn17aUrFQSZAoBG-38" target="iwQhLdn17aUrFQSZAoBG-16" edge="1">
          <mxGeometry relative="1" as="geometry">
            <mxPoint x="580" y="360" as="targetPoint" />
            <Array as="points">
              <mxPoint x="640" y="350" />
            </Array>
          </mxGeometry>
        </mxCell>
        <mxCell id="iwQhLdn17aUrFQSZAoBG-38" value="«Annotation»&lt;br&gt;&lt;b&gt;WAS&lt;/b&gt;" style="html=1;dropTarget=0;" parent="1" vertex="1">
          <mxGeometry x="613" y="145" width="180" height="90" as="geometry" />
        </mxCell>
        <mxCell id="iwQhLdn17aUrFQSZAoBG-39" value="5" style="shape=module;jettyWidth=8;jettyHeight=4;" parent="iwQhLdn17aUrFQSZAoBG-38" vertex="1">
          <mxGeometry x="1" width="20" height="20" relative="1" as="geometry">
            <mxPoint x="-27" y="7" as="offset" />
          </mxGeometry>
        </mxCell>
        <mxCell id="iwQhLdn17aUrFQSZAoBG-40" value="«Annotation»&lt;br&gt;&lt;b&gt;AS400&lt;/b&gt;" style="html=1;dropTarget=0;" parent="1" vertex="1">
          <mxGeometry x="891" y="145" width="180" height="90" as="geometry" />
        </mxCell>
        <mxCell id="iwQhLdn17aUrFQSZAoBG-41" value="6" style="shape=module;jettyWidth=8;jettyHeight=4;" parent="iwQhLdn17aUrFQSZAoBG-40" vertex="1">
          <mxGeometry x="1" width="20" height="20" relative="1" as="geometry">
            <mxPoint x="-27" y="7" as="offset" />
          </mxGeometry>
        </mxCell>
        <mxCell id="iwQhLdn17aUrFQSZAoBG-50" value="" style="shape=flexArrow;endArrow=classic;startArrow=classic;html=1;" parent="1" edge="1">
          <mxGeometry width="100" height="100" relative="1" as="geometry">
            <mxPoint x="793" y="193" as="sourcePoint" />
            <mxPoint x="893" y="193" as="targetPoint" />
            <Array as="points">
              <mxPoint x="853" y="193" />
            </Array>
          </mxGeometry>
        </mxCell>
        <mxCell id="iwQhLdn17aUrFQSZAoBG-64" value="Trama24" style="edgeLabel;html=1;align=center;verticalAlign=middle;resizable=0;points=[];" parent="iwQhLdn17aUrFQSZAoBG-50" vertex="1" connectable="0">
          <mxGeometry x="-0.148" y="-6" relative="1" as="geometry">
            <mxPoint as="offset" />
          </mxGeometry>
        </mxCell>
        <mxCell id="_PE3ErCwy1nDp8iy9RpN-6" value="Text" style="text;html=1;align=center;verticalAlign=middle;resizable=0;points=[];autosize=1;strokeColor=none;" vertex="1" parent="1">
          <mxGeometry x="-20" y="238" width="40" height="20" as="geometry" />
        </mxCell>
        <mxCell id="_PE3ErCwy1nDp8iy9RpN-8" value="" style="endArrow=classic;startArrow=classic;html=1;edgeStyle=orthogonalEdgeStyle;" edge="1" parent="1">
          <mxGeometry width="50" height="50" relative="1" as="geometry">
            <mxPoint x="145" y="267" as="sourcePoint" />
            <mxPoint x="-157" y="267" as="targetPoint" />
            <Array as="points">
              <mxPoint x="145" y="345" />
              <mxPoint x="-157" y="345" />
            </Array>
          </mxGeometry>
        </mxCell>
        <mxCell id="_PE3ErCwy1nDp8iy9RpN-13" value="" style="endArrow=classic;startArrow=classic;html=1;rounded=1;entryX=0.398;entryY=-0.011;entryDx=0;entryDy=0;entryPerimeter=0;edgeStyle=orthogonalEdgeStyle;exitX=0.426;exitY=0.022;exitDx=0;exitDy=0;exitPerimeter=0;" edge="1" parent="1" source="iwQhLdn17aUrFQSZAoBG-3" target="iwQhLdn17aUrFQSZAoBG-25">
          <mxGeometry width="50" height="50" relative="1" as="geometry">
            <mxPoint x="143" y="91" as="sourcePoint" />
            <mxPoint x="-164" y="91" as="targetPoint" />
            <Array as="points">
              <mxPoint x="143" y="170" />
              <mxPoint x="143" y="55" />
              <mxPoint x="-160" y="55" />
            </Array>
          </mxGeometry>
        </mxCell>
        <mxCell id="_PE3ErCwy1nDp8iy9RpN-17" value="" style="endArrow=classic;html=1;" edge="1" parent="1" target="iwQhLdn17aUrFQSZAoBG-21">
          <mxGeometry width="50" height="50" relative="1" as="geometry">
            <mxPoint x="-1" y="57" as="sourcePoint" />
            <mxPoint x="-1.8300000000000125" y="27" as="targetPoint" />
            <Array as="points" />
          </mxGeometry>
        </mxCell>
        <mxCell id="_PE3ErCwy1nDp8iy9RpN-25" style="edgeStyle=orthogonalEdgeStyle;rounded=0;orthogonalLoop=1;jettySize=auto;html=1;" edge="1" parent="1" source="_PE3ErCwy1nDp8iy9RpN-22">
          <mxGeometry relative="1" as="geometry">
            <mxPoint x="1.6666666666669698" y="340" as="targetPoint" />
          </mxGeometry>
        </mxCell>
        <mxCell id="_PE3ErCwy1nDp8iy9RpN-22" value="WFSTP" style="pointerEvents=1;shadow=0;dashed=0;html=1;strokeColor=none;fillColor=#005F4B;labelPosition=center;verticalLabelPosition=bottom;verticalAlign=top;align=center;outlineConnect=0;shape=mxgraph.veeam2.repository_server;" vertex="1" parent="1">
          <mxGeometry x="182" y="431" width="105" height="117" as="geometry" />
        </mxCell>
      </root>
    </mxGraphModel>
  </diagram>
</mxfile>
